# xmcd
#
# Track frame offsets:
#  150
#  8986
#  24240
#  39523
#  53895
#  67788
#  80781
#  101958
#  122836
#  128358
#  139260
#  166257
#  174571
#  183061
#  184662
#  194738
#  209452
#  227891
#
# Disc length: 3140 seconds
#
# Revision: 0
# Processed by: cddbd v1.5.1PL2 Copyright (c) Steve Scherf et al.
# Submitted via: Collectorz.com_Music_Collector 6.9
#
DISCID=f70c4212
DTITLE=Bob Dylan and Merle Haggard - New Title
DYEAR=1900
DGENRE=
TTITLE0=Intro
TTITLE1=I Think I'll Just Stay Here and Drink
TTITLE2=Twinkle Twinkle Lucky Star
TTITLE3=Silver Wings
TTITLE4=That's The News
TTITLE5=That's the Way Love Goes
TTITLE6=My Good Gal's Gone Blues
TTITLE7=It Always Will Be
TTITLE8=Merle Talks To The Audience
TTITLE9=I Had A Little Gal
TTITLE10=Farmers Daughter - Rollin' With The Flow
TTITLE11=I'm Just An Old Country Singer
TTITLE12=Thirty Again
TTITLE13=Okie From Muskogee
TTITLE14=Mama Tried
TTITLE15=White Line Fever
TTITLE16=Footlights
TTITLE17=Outro
EXTD=
EXTT0=
EXTT1=
EXTT2=
EXTT3=
EXTT4=
EXTT5=
EXTT6=
EXTT7=
EXTT8=
EXTT9=
EXTT10=
EXTT11=
EXTT12=
EXTT13=
EXTT14=
EXTT15=
EXTT16=
EXTT17=
PLAYORDER=
